<?xml version="1.0" encoding="UTF-8"?>
<!DOCTYPE svg PUBLIC "-//W3C//DTD SVG 1.1//EN" "http://www.w3.org/Graphics/SVG/1.1/DTD/svg11.dtd">
<!-- Creator: CorelDRAW -->
<svg xmlns="http://www.w3.org/2000/svg" xml:space="preserve" width="5.3232in" height="4.52407in" version="1.1" style="shape-rendering:geometricPrecision; text-rendering:geometricPrecision; image-rendering:optimizeQuality; fill-rule:evenodd; clip-rule:evenodd"
viewBox="0 0 3481.61 2958.95"
 xmlns:xlink="http://www.w3.org/1999/xlink"
 xmlns:xodm="http://www.corel.com/coreldraw/odm/2003">
 <defs>
  <style type="text/css">
   <![CDATA[
    .fil0 {fill:#FCFCFC}
   ]]>
  </style>
 </defs>
 <g id="Capa_x0020_1">
  <metadata id="CorelCorpID_0Corel-Layer"/>
  <polygon class="fil0" points="1903.04,859.29 1117.17,456.34 1114.13,460.87 2145.3,1303.07 1926.82,1532.87 2432.45,1534.2 1718.06,5.17 "/>
  <path class="fil0" d="M1648.99 2588.23c-7.8,-106 -72.56,-180.21 -93.51,-282.95 -13.59,-66.64 -13.38,-290.38 -4.23,-362.71l181 645.07 161.75 0.17 157.4 -630.55 -0.11 630.72 155.98 0.22 -0.37 -777.58 -154.3 0.12 -180.02 702.84 -195.58 -702.77 -162.81 0.1 0.12 776.9 134.66 0.4z"/>
  <polygon class="fil0" points="980.3,1533.2 1471.89,1534.01 1266.45,1307.97 1646.84,993.61 1348.96,743.03 "/>
  <path class="fil0" d="M2938.47 2115.97c-43.73,-426.44 343.8,-352.84 403.32,163.37 49.19,426.64 -351.62,340.7 -403.32,-163.37zm148.74 -311.49c-412.36,58.55 -388.79,845.5 106.26,788.03 411.8,-47.81 387.24,-858.1 -106.26,-788.03z"/>
  <path class="fil0" d="M2393.84 1847.19c285.8,-41.55 300.09,402.73 -0.18,379.21l0.18 -379.21zm-153.81 740.81l153.35 0.09 0.43 -326.93c102.62,-3.24 202.68,16.46 290.83,-43.93 76.54,-52.43 96.55,-166.79 74,-251.93 -54.81,-206.96 -344.84,-160.43 -518.54,-153.98l-0.06 776.68z"/>
  <path class="fil0" d="M232.23 1954.54l90.53 323.07 -187.84 -0.79 97.31 -322.27zm343.32 633.5l-222.57 -777.36 -160.22 -0.33c21.3,113.54 14.94,89.45 -18.95,200.7 -19.56,64.25 -38.46,128.58 -57.07,193.05 -35.88,124.36 -86.43,258.96 -116.74,383.72l196.79 0.5c-14.3,-30.71 -56.88,-41.75 -77.85,-111.62 -12.13,-40.41 -11.52,-126.82 7.71,-164.95l207.77 1.12 79.35 276.97c16.97,-4.74 134.88,-1.84 161.77,-1.81z"/>
  <path class="fil0" d="M1218.22 1845.3c228.38,-1.07 209.1,83.6 263.88,140.52l-0.14 -175.12 -419.22 0.15 -0.13 777.11 419.37 0.27 0.05 -174.77c-36.68,36.8 -31.2,71.48 -96.87,107.79 -52.5,29.02 -107.05,31.6 -167.14,32.31l2.14 -353.13c32.16,0.54 189.32,13.73 185.35,-19.57 -3.45,-28.94 -154.86,-15.14 -187.55,-14.76l0.25 -320.8z"/>
  <path class="fil0" d="M463.54 1810.01l0.75 177.79c59.89,-90.78 65.29,-140.28 203.82,-143.6l0.15 743.69 154.17 0.12 2.22 -741.09c113.92,-16.22 164.53,61 206.46,143.62l0.72 -177.27 -568.29 -3.25z"/>
  <path class="fil0" d="M1702.37 673.49l0.83 -673.49c-35.6,38.6 -189.66,401.99 -240.7,500.08 -28.72,55.19 -12.12,46.58 40.36,72.93 59.75,30 139.86,78.16 199.5,100.49z"/>
  <path class="fil0" d="M2036.48 2809.65c54.16,-4.44 97.24,1.73 97.68,66.43 0.44,63.83 -44.8,70.46 -98.06,66l0.38 -132.43zm-15.15 144.22c65.99,13.01 131.15,-5.33 128.26,-82.86 -2.86,-76.69 -66.08,-77.16 -128.46,-75.03l0.2 157.89z"/>
  <path class="fil0" d="M2340.67 2885.85c-9.71,-98.75 106.83,-107.84 113.39,-18.67 7.45,101.21 -105.21,101.92 -113.39,18.67zm-14.47 9.81c16.1,94.5 160.68,82.2 142.47,-37.53 -15.25,-100.28 -162.74,-81.45 -142.47,37.53z"/>
  <path class="fil0" d="M1014.21 2869.95c-13.34,-8.58 -9.2,-4.12 -9.12,-28.05 0.04,-11.03 0.38,-21.87 1.3,-32.82 19.47,-5.39 43.56,-6.17 60.18,2.14 21,8.97 26.42,32.85 10.63,49.12 -13.98,14.4 -44.16,10.25 -62.99,9.61zm65.25 6.32c19.69,-18.05 34.12,-46.14 8.24,-68.55 -20.87,-18.08 -68,-11.72 -95.15,-12.08 0.18,28.43 0.41,56.88 0.34,85.31 -0.04,13.1 -0.2,26.21 -0.34,39.31 -0.21,20.94 -2.02,23.68 6.96,35.68 12.24,-9.72 7.93,-9.61 7.7,-30.52 -0.16,-14.2 -0.12,-27.89 0.16,-42.62l61.1 3.25c31.73,33.78 0.79,52.63 24.21,70.29 5.58,-8.15 2.91,-0.13 5.46,-11.83l-0.51 -34.31c-2.28,-18.89 -6.49,-20.67 -18.18,-33.95z"/>
  <path class="fil0" d="M850.17 2811.66l28.66 79.26 -57.53 -1.11 28.87 -78.16zm-61.52 144.69c18.6,-9.98 16.88,-30.94 29.42,-53.05l63.76 0.46c14.27,19.57 12.3,41.09 29.42,52.45 4.67,-7.28 11.29,7.34 1.81,-22.24 -1.59,-4.96 -7.08,-15.9 -9.29,-21.19 -31.61,-75.58 -45.84,-169.43 -75.98,-80.93 -7.55,22.19 -48.03,105.68 -39.13,124.51z"/>
  <path class="fil0" d="M1455.21 2913.16c-0.96,1.67 -11.56,6.32 2.33,24.29 15.87,20.56 48.04,24.56 71.96,17.35 36.24,-10.94 43.22,-58.02 16.36,-75.84 -26.39,-17.52 -89.67,-11.89 -74.8,-55.45 5.69,-16.68 32.36,-19.79 47.55,-15.91 27.64,7.08 9.69,24.34 38.67,24.95 -13.64,-53.04 -109.58,-61.97 -101.69,20.64 23.26,17.99 20.32,17.71 50.67,26.14 66.54,18.48 45.44,70.79 -6.5,65.81 -24.55,-2.36 -28.77,-21.45 -44.56,-31.98z"/>
  <path class="fil0" d="M1814.76 2913.98c7.37,51.63 75.76,56.25 102.87,26.84 20.28,-22 20.6,-123.35 9.23,-145.99 -15.6,9.7 -10.72,6.06 -10.34,31.97 0.34,22.77 3.55,82.27 -5.4,97.93 -17.76,31.08 -73.34,29.88 -81.97,-14.93 -21.37,-25.65 7.33,-85.04 -10.7,-110.3 -13.35,13.57 -4.88,95.11 -3.68,114.49z"/>
  <path class="fil0" d="M1225.09 2955.9c8.29,-11.14 4.08,2.35 6.88,-15.85l0.97 -130.64 52.12 -0.68 0.19 -12.83c-21.69,0 -43.38,0.02 -65.06,0.01 -37.68,-0.01 -39.54,-5.22 -54.41,6.6 10.19,12.21 29.87,5.63 49.94,8.23l1.21 119.61c0.09,22.52 -3.93,16.43 8.16,25.57z"/>
  <path class="fil0" d="M1681.13 2955.95c8.1,-11.22 4.01,2.04 6.75,-15.9l0.82 -129.7c28.8,-4.17 36.38,4.28 51.64,-7.86 -11.15,-9 4.98,-3.67 -14.85,-6.81 -0.33,-0.05 -13.45,-0.02 -14.77,-0.02l-78.69 0.57c-11.43,2.37 -4.01,0.6 -12.01,6.25 12.41,12.1 30.48,5.42 51.59,8.29 2.51,26 1.3,53.43 1.31,79.98 0.03,53.41 -7.02,55.01 8.2,65.19z"/>
  <path class="fil0" d="M2235.26 2795.57c-11.36,18.33 -5.64,102.73 -5.88,129.7 -0.33,36.69 2.44,25.97 10.81,30.25 9.11,-22.31 3.61,-58.61 3.6,-84.38 -0.01,-45.77 6.88,-64.84 -8.53,-75.57z"/>
  <path class="fil0" d="M1814.76 2913.98c-1.2,-19.37 -9.67,-100.92 3.68,-114.49 18.03,25.27 -10.67,84.66 10.7,110.3l-3.88 -114.65 -14.23 0.22c-5.28,15.91 -7.96,111.39 3.72,118.61z"/>
  <path class="fil0" d="M1014.21 2869.95l-4.47 -59.35 56.83 0.63c-16.62,-8.31 -40.71,-7.53 -60.18,-2.14 -0.91,10.95 -1.26,21.79 -1.3,32.82 -0.09,23.94 -4.22,19.48 9.12,28.05z"/>
 </g>
</svg>
